<svg width="21" height="20" viewBox="0 0 21 20" fill="none" xmlns="http://www.w3.org/2000/svg">
<mask id="mask0_479_5660" style="mask-type:alpha" maskUnits="userSpaceOnUse" x="0" y="0" width="21" height="20">
<rect x="0.75" width="20" height="20" fill="#D9D9D9"/>
</mask>
<g mask="url(#mask0_479_5660)">
<path d="M10.75 14.1667C9.59726 14.1667 8.61462 13.7604 7.80212 12.9479C6.98962 12.1354 6.58337 11.1528 6.58337 10C6.58337 8.84723 6.98962 7.86459 7.80212 7.05209C8.61462 6.23959 9.59726 5.83334 10.75 5.83334C11.9028 5.83334 12.8855 6.23959 13.698 7.05209C14.5105 7.86459 14.9167 8.84723 14.9167 10C14.9167 11.1528 14.5105 12.1354 13.698 12.9479C12.8855 13.7604 11.9028 14.1667 10.75 14.1667ZM2.41671 10.8333C2.1806 10.8333 1.98268 10.7535 1.82296 10.5938C1.66324 10.434 1.58337 10.2361 1.58337 10C1.58337 9.7639 1.66324 9.56598 1.82296 9.40626C1.98268 9.24654 2.1806 9.16668 2.41671 9.16668H4.08337C4.31949 9.16668 4.5174 9.24654 4.67712 9.40626C4.83685 9.56598 4.91671 9.7639 4.91671 10C4.91671 10.2361 4.83685 10.434 4.67712 10.5938C4.5174 10.7535 4.31949 10.8333 4.08337 10.8333H2.41671ZM17.4167 10.8333C17.1806 10.8333 16.9827 10.7535 16.823 10.5938C16.6632 10.434 16.5834 10.2361 16.5834 10C16.5834 9.7639 16.6632 9.56598 16.823 9.40626C16.9827 9.24654 17.1806 9.16668 17.4167 9.16668H19.0834C19.3195 9.16668 19.5174 9.24654 19.6771 9.40626C19.8368 9.56598 19.9167 9.7639 19.9167 10C19.9167 10.2361 19.8368 10.434 19.6771 10.5938C19.5174 10.7535 19.3195 10.8333 19.0834 10.8333H17.4167ZM10.75 4.16668C10.5139 4.16668 10.316 4.08682 10.1563 3.92709C9.99657 3.76737 9.91671 3.56945 9.91671 3.33334V1.66668C9.91671 1.43057 9.99657 1.23265 10.1563 1.07293C10.316 0.913205 10.5139 0.833344 10.75 0.833344C10.9862 0.833344 11.1841 0.913205 11.3438 1.07293C11.5035 1.23265 11.5834 1.43057 11.5834 1.66668V3.33334C11.5834 3.56945 11.5035 3.76737 11.3438 3.92709C11.1841 4.08682 10.9862 4.16668 10.75 4.16668ZM10.75 19.1667C10.5139 19.1667 10.316 19.0868 10.1563 18.9271C9.99657 18.7674 9.91671 18.5695 9.91671 18.3333V16.6667C9.91671 16.4306 9.99657 16.2327 10.1563 16.0729C10.316 15.9132 10.5139 15.8333 10.75 15.8333C10.9862 15.8333 11.1841 15.9132 11.3438 16.0729C11.5035 16.2327 11.5834 16.4306 11.5834 16.6667V18.3333C11.5834 18.5695 11.5035 18.7674 11.3438 18.9271C11.1841 19.0868 10.9862 19.1667 10.75 19.1667ZM5.45837 5.87501L4.56254 5.00001C4.39587 4.84723 4.31601 4.65279 4.32296 4.41668C4.3299 4.18057 4.40976 3.97918 4.56254 3.81251C4.72921 3.64584 4.9306 3.56251 5.16671 3.56251C5.40282 3.56251 5.59726 3.64584 5.75004 3.81251L6.62504 4.70834C6.77782 4.87501 6.85421 5.06945 6.85421 5.29168C6.85421 5.5139 6.77782 5.70834 6.62504 5.87501C6.47226 6.04168 6.28129 6.12154 6.05212 6.11459C5.82296 6.10765 5.62504 6.02779 5.45837 5.87501ZM15.75 16.1875L14.875 15.2917C14.7223 15.125 14.6459 14.9271 14.6459 14.6979C14.6459 14.4688 14.7223 14.2778 14.875 14.125C15.0278 13.9583 15.2188 13.8785 15.448 13.8854C15.6771 13.8924 15.875 13.9722 16.0417 14.125L16.9375 15C17.1042 15.1528 17.1841 15.3472 17.1771 15.5833C17.1702 15.8195 17.0903 16.0208 16.9375 16.1875C16.7709 16.3542 16.5695 16.4375 16.3334 16.4375C16.0973 16.4375 15.9028 16.3542 15.75 16.1875ZM14.875 5.87501C14.7084 5.72223 14.6285 5.53126 14.6355 5.30209C14.6424 5.07293 14.7223 4.87501 14.875 4.70834L15.75 3.81251C15.9028 3.64584 16.0973 3.56598 16.3334 3.57293C16.5695 3.57987 16.7709 3.65973 16.9375 3.81251C17.1042 3.97918 17.1875 4.18057 17.1875 4.41668C17.1875 4.65279 17.1042 4.84723 16.9375 5.00001L16.0417 5.87501C15.875 6.02779 15.6806 6.10418 15.4584 6.10418C15.2362 6.10418 15.0417 6.02779 14.875 5.87501ZM4.56254 16.1875C4.39587 16.0208 4.31254 15.8195 4.31254 15.5833C4.31254 15.3472 4.39587 15.1528 4.56254 15L5.45837 14.125C5.62504 13.9722 5.82296 13.8958 6.05212 13.8958C6.28129 13.8958 6.47226 13.9722 6.62504 14.125C6.79171 14.2778 6.87157 14.4688 6.86462 14.6979C6.85768 14.9271 6.77782 15.125 6.62504 15.2917L5.75004 16.1875C5.59726 16.3542 5.40282 16.434 5.16671 16.4271C4.9306 16.4201 4.72921 16.3403 4.56254 16.1875Z" fill="#0F1419"/>
</g>
</svg>
