<svg width="21" height="20" viewBox="0 0 21 20" fill="none" xmlns="http://www.w3.org/2000/svg">
<mask id="mask0_479_5665" style="mask-type:alpha" maskUnits="userSpaceOnUse" x="0" y="0" width="21" height="20">
<rect x="0.25" width="20" height="20" fill="#D9D9D9"/>
</mask>
<g mask="url(#mask0_479_5665)">
<path d="M11.9167 18.3333C10.7778 18.3333 9.70143 18.1146 8.68754 17.6771C7.67365 17.2396 6.78824 16.6424 6.03129 15.8854C5.27435 15.1285 4.67712 14.243 4.23962 13.2292C3.80212 12.2153 3.58337 11.1389 3.58337 9.99999C3.58337 8.84721 3.80212 7.76735 4.23962 6.76041C4.67712 5.75346 5.27435 4.87152 6.03129 4.11457C6.78824 3.35763 7.67365 2.76041 8.68754 2.32291C9.70143 1.88541 10.7778 1.66666 11.9167 1.66666C12.6667 1.66666 13.3959 1.76388 14.1042 1.95832C14.8125 2.15277 15.4723 2.43055 16.0834 2.79166C14.8195 3.52777 13.8091 4.5243 13.0521 5.78124C12.2952 7.03818 11.9167 8.44443 11.9167 9.99999C11.9167 11.5555 12.2952 12.9618 13.0521 14.2187C13.8091 15.4757 14.8195 16.4722 16.0834 17.2083C15.4723 17.5694 14.8125 17.8472 14.1042 18.0417C13.3959 18.2361 12.6667 18.3333 11.9167 18.3333Z" fill="#0F1419"/>
</g>
</svg>
